<svg width="17" height="23" xmlns="http://www.w3.org/2000/svg" xmlns:xlink="http://www.w3.org/1999/xlink" xmlns:svgjs="http://svgjs.com/svgjs" viewBox="0 0.305 17 22.389" fill="#0B509A"><svg xmlns="http://www.w3.org/2000/svg" width="17" height="23" viewBox="0 0.544 16.379 21.572"><path paint-order="stroke fill markers" fill-rule="evenodd" d="M10.355 15.316c.829-.86 1.645-1.73 2.488-2.575.938-.94 2.164-1.008 2.962-.193.838.856.757 1.96-.234 2.956-1.932 1.942-3.868 3.88-5.811 5.811-1.086 1.078-2.099 1.066-3.195-.025-1.94-1.934-3.878-3.87-5.81-5.812-.923-.928-1.003-2.085-.222-2.907.792-.832 2.03-.781 2.97.144.853.841 1.687 1.702 2.749 2.521v-.825c0-3.942.004-7.883-.001-11.825-.001-.875.372-1.518 1.171-1.854.723-.304 1.533-.27 2.01.337.394.503.67 1.24.681 1.879.062 3.773.03 7.547.03 11.321v.918l.212.129z"/></svg></svg>