<svg id="Group_1069" data-name="Group 1069" xmlns="http://www.w3.org/2000/svg" xmlns:xlink="http://www.w3.org/1999/xlink" width="25.298" height="25.298" viewBox="0 0 25.298 25.298">
  <defs>
    <linearGradient id="linear-gradient" x1="0.055" y1="0.895" x2="1.207" y2="-0.128" gradientUnits="objectBoundingBox">
      <stop offset="0" stop-color="#35bef4"/>
      <stop offset="0.335" stop-color="#228ccb"/>
      <stop offset="0.935" stop-color="#023886"/>
    </linearGradient>
  </defs>
  <circle id="Ellipse_49" data-name="Ellipse 49" cx="12.649" cy="12.649" r="12.649" transform="translate(0 0)" fill="url(#linear-gradient)"/>
  <g id="Group_1068" data-name="Group 1068" transform="translate(4.007 2.932)">
    <path id="Path_9560" data-name="Path 9560" d="M44.851,29.454l-7.7,4.447-.126.072v9.04l7.829,4.52,7.7-4.447.126-.072v-9.04Zm-.251.725V33.51l-3.94,2.274-2.885-1.666ZM40.66,41.2l3.94,2.274v3.332l-6.825-3.94Zm-.251-4.984v4.549l-2.885,1.666V34.553Zm.5,0,3.94-2.275,3.939,2.275v4.549l-3.939,2.274-3.94-2.274Zm8.13-.435L45.1,33.51V30.179l6.824,3.94Zm2.885,7.084L45.1,46.809V43.477L49.041,41.2Zm-2.634-2.1V36.219l2.885-1.666v7.881Z" transform="translate(-36.216 -28.777)" fill="#fff"/>
    <circle id="Ellipse_50" data-name="Ellipse 50" cx="1.064" cy="1.064" r="1.064" transform="translate(0 4.294)" fill="#fff"/>
    <circle id="Ellipse_51" data-name="Ellipse 51" cx="1.064" cy="1.064" r="1.064" transform="translate(7.57)" fill="#fff"/>
    <circle id="Ellipse_52" data-name="Ellipse 52" cx="1.064" cy="1.064" r="1.064" transform="translate(7.57 17.304)" fill="#fff"/>
    <circle id="Ellipse_53" data-name="Ellipse 53" cx="1.064" cy="1.064" r="1.064" transform="translate(15.155 4.294)" fill="#fff"/>
    <circle id="Ellipse_54" data-name="Ellipse 54" cx="1.064" cy="1.064" r="1.064" transform="translate(0 12.883)" fill="#fff"/>
    <circle id="Ellipse_55" data-name="Ellipse 55" cx="1.064" cy="1.064" r="1.064" transform="translate(15.155 12.883)" fill="#fff"/>
  </g>
</svg>
