<svg xmlns="http://www.w3.org/2000/svg" xmlns:xlink="http://www.w3.org/1999/xlink" width="48.041" height="34.57" viewBox="0 0 48.041 34.57">
  <defs>
    <linearGradient id="linear-gradient" x1="0.491" y1="-0.496" x2="0.508" y2="1.368" gradientUnits="objectBoundingBox">
      <stop offset="0" stop-color="#ffd27d"/>
      <stop offset="0.039" stop-color="#fec769"/>
      <stop offset="0.138" stop-color="#fbb13b"/>
      <stop offset="0.226" stop-color="#faa01b"/>
      <stop offset="0.3" stop-color="#f99607"/>
      <stop offset="0.349" stop-color="#f99300"/>
      <stop offset="0.995" stop-color="#e97800"/>
    </linearGradient>
    <linearGradient id="linear-gradient-2" x1="0.492" y1="-0.478" x2="0.507" y2="1.334" xlink:href="#linear-gradient"/>
    <linearGradient id="linear-gradient-3" x1="0.494" y1="-0.537" x2="0.512" y2="1.357" xlink:href="#linear-gradient"/>
  </defs>
  <g id="Group_438" data-name="Group 438" transform="translate(4083.444 2986.599)">
    <path id="Path_809" data-name="Path 809" d="M-4039.031-2986.1h-40.785a3.128,3.128,0,0,0-3.128,3.127v21.345a3.128,3.128,0,0,0,3.128,3.127h8.14l-1.554,5.231,7.424-5.231h26.775a3.128,3.128,0,0,0,3.127-3.127v-21.345A3.128,3.128,0,0,0-4039.031-2986.1Z" transform="translate(0)" fill="#fff" stroke="#f96503" stroke-miterlimit="10" stroke-width="1"/>
    <g id="Group_436" data-name="Group 436" transform="translate(-4079.924 -2985.328)">
      <path id="Path_810" data-name="Path 810" d="M-4066.168-2974.218c.245,3.493,2.451.552,2.083-1.1-.32-1.437.116.509,1.1-.042s.5-1.613.007-2.838c-.365-.912,1.838,2.145,1.838,2.145l-1.226,4.9-4.84,2.083Z" transform="translate(4071.899 2981.387)" fill="#fc0001"/>
      <path id="Path_811" data-name="Path 811" d="M-4064.563-2960.385a4.058,4.058,0,0,1-4.059,4.058c-2.242,0-8.237-.036-4.882-5.293,3.94-6.176-.824-8.469,4.47-12.292C-4072.269-2968.442-4064.563-2962.626-4064.563-2960.385Z" transform="translate(4075.619 2979.113)" fill="#fc0001"/>
      <path id="Path_812" data-name="Path 812" d="M-4063.37-2967.311c-2.411-5.411-.941-5.235,1-7.823s-1-6.016-1-6.016,4.178,1.958,3.649,5.6-3,4.352.059,7.587,2.882,7.94-1.941,8.058-4.411-5.412-4.235-5.47S-4063.37-2967.311-4063.37-2967.311Z" transform="translate(4071.248 2982.804)" fill="#fc0001"/>
      <path id="Path_813" data-name="Path 813" d="M-4052.795-2960.97c2.216-1.523.813-3.62.912-4.366l.1-.746s-1.286,1.42-.916,2.451A5.415,5.415,0,0,1-4052.795-2960.97Z" transform="translate(4064.548 2975.12)" fill="#fc0001"/>
      <path id="Path_814" data-name="Path 814" d="M-4073.592-2955.74l-1.765,4.882s-1.706-1.765-.765-6.352a4.153,4.153,0,0,0-.059-2.059s1.256.875,1.235,1.882C-4075-2954.5-4073.592-2955.74-4073.592-2955.74Z" transform="translate(4076.589 2971.645)" fill="#fc0001"/>
      <path id="Path_815" data-name="Path 815" d="M-4067.4-2953.814c-3.676,1.471-8.149.552-8.946-1.838a5.811,5.811,0,0,1,.551-4.535s-.49,1.961,1.164,2.328,3.615-2.206,2.513-5.576.062-5.085.062-5.085a4.983,4.983,0,0,0,1.347,3.921c1.225,1.179,4.6,2.267,5.086,6S-4067.4-2953.814-4067.4-2953.814Z" transform="translate(4076.689 2976.363)" fill="#fb6d01"/>
      <path id="Path_816" data-name="Path 816" d="M-4058.924-2975.148c1.348,2.022,1.594,3.615-.062,5.821s-.8,3.554-.8,3.554-2.39-1.838-1.164-3.676,2.451-2.7,2.267-3.8S-4058.924-2975.148-4058.924-2975.148Z" transform="translate(4068.883 2979.743)" fill="#fb6d01"/>
      <path id="Path_817" data-name="Path 817" d="M-4059.5-2959.517c-2.88,3.738-.551,6.863-.551,6.863l-4.657,3.615s1.348,1.165,4.473.368,3.113-3.972,1.9-5.7C-4059.93-2956.637-4059.991-2958.6-4059.5-2959.517Z" transform="translate(4070.624 2971.771)" fill="#fb6d01"/>
      <path id="Path_818" data-name="Path 818" d="M-4067.767-2958.516c4.717,2.451,6.862,3.247,6.618,6.74s-4.412,4.411-6.924,3.247-.49-2.635.98-4.718S-4067.767-2958.516-4067.767-2958.516Z" transform="translate(4072.947 2971.261)" fill="#efa204"/>
      <path id="Path_819" data-name="Path 819" d="M-4076.319-2948.388c-1.348,3.737.368,5.882,3.676,5.515l3.309-.368a16.343,16.343,0,0,0-4.779-2.757C-4076.5-2946.733-4076.319-2948.388-4076.319-2948.388Z" transform="translate(4076.781 2966.095)" fill="#facf67"/>
      <path id="Path_820" data-name="Path 820" d="M-4066.666-2954.891c1.777,1.9.858,3.677-1.225,4.841s-3,2.206-.919,3.125,5.883,1.777,7.169-.49c1.68-2.96-.8-6.127-.8-6.127s.8,3.431-1.47,3.8c-.923.15.245-.612-.123-2.941A2.538,2.538,0,0,0-4066.666-2954.891Z" transform="translate(4073.316 2969.413)" fill="#facf67"/>
      <path id="Path_821" data-name="Path 821" d="M-4051.771-2954.39c1.716,3.8-.184,5.821-.184,5.821s1.9-.919,1.777-2.267A10.9,10.9,0,0,0-4051.771-2954.39Z" transform="translate(4064.119 2969.157)" fill="#fce8b3"/>
      <path id="Path_822" data-name="Path 822" d="M-4072.057-2951.707c-2.237-3,1.6-4.5,1.6-4.5a2.955,2.955,0,0,0-1.034,2.1A6.553,6.553,0,0,1-4072.057-2951.707Z" transform="translate(4074.729 2970.081)" fill="#facf67"/>
      <path id="Path_823" data-name="Path 823" d="M-4072.8-2945.329c-4.031-2.26-1.716-6.454-1.716-6.454a20.7,20.7,0,0,0,.681,2.615c.871,1.689-.22-.672,2.016-1.2,1.389-.327,1.906-2.669,1.906-2.669a4.158,4.158,0,0,1,0,3.977c-.769,1.171,2.043.381,1.716-1.334.463.136.9.6.98,1.634.131,1.66,1.252,1.852,1.689.354a2.783,2.783,0,0,1,1.987-1.825s-1.171,1.416-.79,2.369a1.7,1.7,0,0,1-1.008,2.506C-4066.614-2945.029-4072.8-2945.329-4072.8-2945.329Z" transform="translate(4075.961 2968.467)" fill="#fce8b3"/>
      <path id="Path_824" data-name="Path 824" d="M-4069.483-2943.02c-5.024-.184-5.085-1.562-4.895-3.986a4.6,4.6,0,0,1,.326-1.5,4.092,4.092,0,0,0,1.259,2.543c1.165,1.042-1.056-1.173,1.41-2.022a2.424,2.424,0,0,0,1.771-1.773c.844,1.743-1.253,3.186-.606,3.918,1.071,1.213,2.159-.377,2.267-1.409.926,1.93-.077,2.455.9,2.611a1.812,1.812,0,0,0,2.165-1.753,2.665,2.665,0,0,1-.674,2.879C-4066.91-2942.345-4069.483-2943.02-4069.483-2943.02Z" transform="translate(4075.582 2966.794)" fill="#fff"/>
      <path id="Path_825" data-name="Path 825" d="M-4067.8-2944.834c-1.947-1.212-1.028-2.571-1.028-2.571Z" transform="translate(4072.836 2965.594)" fill="#fce8b3"/>
      <path id="Path_826" data-name="Path 826" d="M-4072.061-2964.272c-1.41-1.348-.245-3.248-.245-3.248Z" transform="translate(4074.729 2975.853)" fill="#fc0001"/>
      <path id="Path_827" data-name="Path 827" d="M-4059.021-2964.824c-1.961-3.125-.245-4.29.613-5.27s-.674.551-.613,1.9S-4059.021-2964.824-4059.021-2964.824Z" transform="translate(4068.184 2977.324)" fill="#fce8b3"/>
      <path id="Path_828" data-name="Path 828" d="M-4064.243-2965.394c-1.716,1.838,1.409,4.473,1.409,4.473a4.236,4.236,0,0,0-.674-2.451A3.761,3.761,0,0,1-4064.243-2965.394Z" transform="translate(4070.649 2974.769)" fill="#efa204"/>
      <path id="Path_829" data-name="Path 829" d="M-4064.711-2983.056a4.142,4.142,0,0,1-.123,3s2.022-1.164,1.1-2.451-.49-2.022-.49-2.022S-4064.9-2983.668-4064.711-2983.056Z" transform="translate(4070.688 2984.526)" fill="#fc0001"/>
    </g>
    <g id="Group_437" data-name="Group 437" transform="translate(-4063.563 -2975.667)">
      <path id="Path_830" data-name="Path 830" d="M-4041.648-2955.995a4.718,4.718,0,0,1-.581.034,1.412,1.412,0,0,1-.907-.221,1.027,1.027,0,0,1-.256-.8v-7.488q.152-.028.436-.07a3.913,3.913,0,0,1,.561-.041,1.521,1.521,0,0,1,.9.208.976.976,0,0,1,.276.816v2.436h2.976v-3.349q.152-.028.437-.07a4.01,4.01,0,0,1,.574-.041,1.418,1.418,0,0,1,.886.221,1.019,1.019,0,0,1,.277.83v7.461a3.325,3.325,0,0,1-.429.076,4.712,4.712,0,0,1-.581.034,1.411,1.411,0,0,1-.907-.221,1.025,1.025,0,0,1-.256-.8v-2.423h-2.976v3.336A3.283,3.283,0,0,1-4041.648-2955.995Z" transform="translate(4043.392 2964.694)" fill="url(#linear-gradient)"/>
      <path id="Path_831" data-name="Path 831" d="M-4016.747-2960.38a5.209,5.209,0,0,1-.326,1.91,3.849,3.849,0,0,1-.906,1.392,3.885,3.885,0,0,1-1.37.851,4.909,4.909,0,0,1-1.717.292,4.9,4.9,0,0,1-1.716-.292,3.816,3.816,0,0,1-1.364-.851,3.893,3.893,0,0,1-.9-1.392,5.219,5.219,0,0,1-.326-1.91,5.056,5.056,0,0,1,.333-1.9,3.928,3.928,0,0,1,.914-1.384,3.893,3.893,0,0,1,1.363-.851,4.837,4.837,0,0,1,1.7-.291,4.9,4.9,0,0,1,1.7.291,3.882,3.882,0,0,1,1.37.851,3.935,3.935,0,0,1,.914,1.384A5.056,5.056,0,0,1-4016.747-2960.38Zm-2.243,0a3.055,3.055,0,0,0-.561-2,1.871,1.871,0,0,0-1.516-.672,1.877,1.877,0,0,0-1.509.672,3.03,3.03,0,0,0-.567,2,3.084,3.084,0,0,0,.561,2.014,1.869,1.869,0,0,0,1.516.671,1.869,1.869,0,0,0,1.516-.671A3.081,3.081,0,0,0-4018.99-2960.38Z" transform="translate(4034.202 2964.81)" fill="url(#linear-gradient-2)"/>
      <path id="Path_832" data-name="Path 832" d="M-4002.1-2962.557v6.63a3.26,3.26,0,0,1-.429.076,4.754,4.754,0,0,1-.581.035,1.435,1.435,0,0,1-.913-.222,1.006,1.006,0,0,1-.264-.8v-5.716h-2.173a1.922,1.922,0,0,1-.159-.36,1.48,1.48,0,0,1-.077-.485.957.957,0,0,1,.208-.685.754.754,0,0,1,.567-.215h6.05a1.361,1.361,0,0,1,.166.36,1.623,1.623,0,0,1,.069.484.959.959,0,0,1-.208.678.741.741,0,0,1-.567.222Z" transform="translate(4024.679 2964.551)" fill="url(#linear-gradient-3)"/>
    </g>
  </g>
</svg>
